<?xml version="1.0" encoding="utf-8"?>
<!-- Generator: Adobe Illustrator 16.0.0, SVG Export Plug-In . SVG Version: 6.00 Build 0)  -->
<!DOCTYPE svg PUBLIC "-//W3C//DTD SVG 1.1//EN" "http://www.w3.org/Graphics/SVG/1.1/DTD/svg11.dtd">
<svg version="1.1" id="Layer_1" xmlns="http://www.w3.org/2000/svg" xmlns:xlink="http://www.w3.org/1999/xlink" x="0px" y="0px"
	 width="952.023px" height="125.764px" viewBox="0 0 952.023 125.764" enable-background="new 0 0 952.023 125.764"
	 xml:space="preserve">
<g id="Layer_1_1_">
	<rect x="122.992" y="13.853" fill="none" width="829.031" height="90.875"/>
	<g enable-background="new    ">
		<path d="M197.159,54.151c3.632-0.088,6.621-1.084,8.965-2.988l-2.197,17.622c-0.059-1.611-0.571-3.208-1.538-4.79
			c-1.934-3.164-5.157-4.746-9.668-4.746h-14.37v33.398l-0.044,1.45v1.45c0.176,2.432,1.509,4.541,3.999,6.328
			c1.23,0.908,2.446,1.567,3.647,1.978h-25.752c1.201-0.41,2.417-1.069,3.647-1.978c2.461-1.787,3.794-3.896,3.999-6.328V68.125
			h0.044c-0.029-14.033-0.059-29.561-0.088-46.582c-1.318-2.695-4.366-4.731-9.141-6.108h46.187l3.384-1.582l-3.384,16.436
			c-0.117-1.641-0.601-3.267-1.45-4.878c-1.67-3.281-4.322-4.922-7.954-4.922h-17.095v33.662H197.159z"/>
	</g>
	<g enable-background="new    ">
		<path d="M236.72,100.948c3.304,0,6.392-1.561,9.263-4.683c1.436-1.572,2.541-3.133,3.315-4.683l-1.436,12.271h-38.008
			c1.025-0.342,2.039-0.889,3.042-1.641c2.028-1.526,3.042-3.315,3.042-5.366c0-3.304-0.034-22.684-0.103-58.14
			c-1.025-2.142-3.43-3.76-7.212-4.854h22.695c-3.441,1.003-5.811,2.553-7.109,4.648v56.465c0.752,1.003,1.846,2.006,3.281,3.008
			C230.317,99.956,233.393,100.948,236.72,100.948z M224.074,38.706c-0.068,35.456-0.103,54.836-0.103,58.14l0.239-58.345
			C224.165,38.593,224.119,38.661,224.074,38.706z"/>
		<path d="M267.721,97.393c0.137,1.892,1.162,3.532,3.076,4.922c0.979,0.707,1.937,1.22,2.871,1.538h-20.063
			c0.934-0.318,1.88-0.831,2.837-1.538c1.937-1.39,2.974-3.03,3.11-4.922v-57.08c-0.137-1.891-1.174-3.531-3.11-4.922
			c-0.957-0.706-1.903-1.219-2.837-1.538h20.063c-0.935,0.319-1.892,0.832-2.871,1.538c-1.914,1.391-2.939,3.031-3.076,4.922V97.393
			z"/>
		<path d="M350.197,33.853c-0.935,0.319-1.88,0.832-2.837,1.538c-1.937,1.391-2.974,3.031-3.11,4.922v63.54l-0.034-0.068v0.068
			l-50.894-52.808v46.348c0.137,1.892,1.173,3.532,3.11,4.922c0.957,0.707,1.902,1.22,2.837,1.538h-20.063
			c0.934-0.318,1.88-0.831,2.837-1.538c1.937-1.39,2.974-3.03,3.11-4.922v-63.54l50.928,53.457V40.313
			c-0.137-1.891-1.174-3.531-3.11-4.922c-0.957-0.706-1.903-1.219-2.837-1.538H350.197z"/>
		<path d="M401.671,74.834c0.159-0.523-0.012-1.128-0.513-1.812c-1.003-1.39-3.19-2.506-6.562-3.35h22.388
			c-3.373,0.844-5.56,1.96-6.562,3.35c-0.524,0.684-0.695,1.288-0.513,1.812v24.165c-1.003,0.798-2.644,1.606-4.922,2.427
			c-4.58,1.618-10.061,2.427-16.44,2.427c-11.507,0-20.679-2.769-27.515-8.306c-7.793-6.312-11.689-15.677-11.689-28.096
			c-0.273-5.605,1.06-11.199,3.999-16.782c5.901-11.211,16.896-16.816,32.983-16.816c12.965,0.98,21.077,1.96,24.336,2.939
			l-2.358,15.483c-0.479-2.552-1.721-5.104-3.726-7.656c-3.988-5.127-9.821-7.69-17.5-7.69c-9.274,0-16.589,2.7-21.943,8.101
			c-5.423,5.469-8.135,12.988-8.135,22.559c0,9.16,3.714,16.931,11.143,23.311c6.858,5.879,14.446,8.818,22.764,8.818
			c4.603,0.205,8.191-0.877,10.767-3.247V74.834z"/>
	</g>
	<g enable-background="new    ">
	</g>
	<g enable-background="new    ">
		<path d="M426.251,86.455c0,4.489,1.641,7.907,4.922,10.254c2.483,1.777,5.332,2.666,8.545,2.666c2.894,0,5.788-0.968,8.682-2.905
			c3.35-2.232,5.024-4.944,5.024-8.135c0-3.145-1.345-6.414-4.033-9.81c-1.732-2.164-5.002-5.389-9.81-9.673
			c-4.694-4.17-7.896-7.394-9.604-9.673c-2.575-3.372-3.862-6.802-3.862-10.288c0-4.056,1.629-7.52,4.888-10.391
			c3.532-3.099,8.101-4.648,13.706-4.648c4.876,0,8.556,0.444,11.04,1.333c1.253,0.434,2.005,0.878,2.256,1.333l-2.153,12.1
			c0-2.393-0.832-4.751-2.495-7.075c-2.119-2.894-4.922-4.341-8.408-4.341c-3.828,0-6.756,0.775-8.784,2.324
			c-1.937,1.527-2.905,3.669-2.905,6.426c0,4.558,3.987,10.117,11.963,16.68c4.876,3.988,8.123,6.928,9.741,8.818
			c3.463,4.011,5.195,8.066,5.195,12.168c0,6.494-2.951,11.689-8.853,15.586c-4.717,3.1-9.662,4.648-14.834,4.648
			c-3.304,0-6.175-0.831-8.613-2.495c-1.23-0.843-2.119-1.686-2.666-2.529C424.804,95.502,425.157,91.377,426.251,86.455z"/>
	</g>
	<g enable-background="new    ">
	</g>
	<g enable-background="new    ">
		<path d="M533.878,100.117c4.247,0,8.218-2.007,11.909-6.021c1.846-2.021,3.267-4.028,4.263-6.021l-1.846,15.776h-48.867
			c1.318-0.439,2.622-1.143,3.911-2.109c2.607-1.963,3.911-4.263,3.911-6.899c0-4.248-0.044-29.165-0.132-74.751
			c-1.318-2.754-4.41-4.834-9.272-6.24h29.18c-4.424,1.289-7.471,3.281-9.141,5.977v72.598c0.967,1.289,2.373,2.578,4.219,3.867
			C525.645,98.843,529.6,100.117,533.878,100.117z M517.618,20.093c-0.088,45.586-0.132,70.503-0.132,74.751l0.308-75.015
			C517.734,19.947,517.677,20.034,517.618,20.093z"/>
	</g>
	<g enable-background="new    ">
		<path d="M595.899,103.853c1.071-1.526,2.859-2.643,5.366-3.35l-8.989-23.208h-19.312l-7.383,22.114c0,1.345,0.9,2.495,2.7,3.452
			c0.889,0.456,1.777,0.786,2.666,0.991H550.44c2.962-0.387,5.32-1.572,7.075-3.555c0.889-1.002,1.48-1.959,1.777-2.871
			l23.994-63.574c16.27,39.604,25.213,60.966,26.831,64.087c1.003,1.96,2.62,3.532,4.854,4.717c1.116,0.593,2.13,0.991,3.042,1.196
			H595.899z M591.217,73.091l-8.442-23.652l-8.716,23.584L591.217,73.091z"/>
		<path d="M694.405,33.853c-0.935,0.319-1.88,0.832-2.837,1.538c-1.938,1.391-2.974,3.031-3.11,4.922v63.54l-0.034-0.068v0.068
			L637.53,51.045v46.348c0.137,1.892,1.173,3.532,3.11,4.922c0.957,0.707,1.902,1.22,2.837,1.538h-20.063
			c0.934-0.318,1.88-0.831,2.837-1.538c1.937-1.39,2.974-3.03,3.11-4.922v-63.54l50.928,53.457V40.313
			c-0.137-1.891-1.174-3.531-3.11-4.922c-0.957-0.706-1.903-1.219-2.837-1.538H694.405z"/>
		<path d="M729.645,33.853c15.723,0,26.467,5.561,32.231,16.68c2.871,5.561,4.17,11.12,3.896,16.68
			c0,12.191-3.806,21.522-11.416,27.993c-6.813,5.766-15.78,8.647-26.899,8.647h-27.822l3.486-1.162
			c2.051-0.934,3.189-1.993,3.418-3.179V38.911c0.182-0.523,0.022-1.116-0.479-1.777c-0.98-1.344-3.122-2.438-6.426-3.281H729.645z
			 M725.133,99.82c8.066,0,15.483-3.053,22.251-9.16c7.269-6.539,10.903-14.31,10.903-23.311c0-9.365-2.654-16.714-7.964-22.046
			c-5.218-5.286-12.362-7.93-21.431-7.93c-5.788,0-10.551,1.527-14.287,4.58v54.688C717.111,98.943,720.621,100.002,725.133,99.82z"
			/>
		<path d="M779.171,97.393c0.137,1.892,1.162,3.532,3.076,4.922c0.979,0.707,1.937,1.22,2.871,1.538h-20.063
			c0.934-0.318,1.88-0.831,2.837-1.538c1.937-1.39,2.974-3.03,3.11-4.922v-57.08c-0.137-1.891-1.174-3.531-3.11-4.922
			c-0.957-0.706-1.903-1.219-2.837-1.538h20.063c-0.935,0.319-1.892,0.832-2.871,1.538c-1.914,1.391-2.939,3.031-3.076,4.922V97.393
			z"/>
		<path d="M861.646,33.853c-0.935,0.319-1.88,0.832-2.837,1.538c-1.937,1.391-2.974,3.031-3.11,4.922v63.54l-0.034-0.068v0.068
			l-50.894-52.808v46.348c0.137,1.892,1.174,3.532,3.11,4.922c0.957,0.707,1.902,1.22,2.837,1.538h-20.063
			c0.935-0.318,1.88-0.831,2.837-1.538c1.937-1.39,2.974-3.03,3.11-4.922v-63.54L847.53,87.31V40.313
			c-0.137-1.891-1.174-3.531-3.11-4.922c-0.957-0.706-1.902-1.219-2.837-1.538H861.646z"/>
		<path d="M913.121,74.834c0.159-0.523-0.012-1.128-0.513-1.812c-1.003-1.39-3.19-2.506-6.562-3.35h22.388
			c-3.373,0.844-5.561,1.96-6.562,3.35c-0.524,0.684-0.695,1.288-0.513,1.812v24.165c-1.003,0.798-2.644,1.606-4.922,2.427
			c-4.58,1.618-10.061,2.427-16.44,2.427c-11.508,0-20.679-2.769-27.515-8.306c-7.793-6.312-11.689-15.677-11.689-28.096
			c-0.273-5.605,1.06-11.199,3.999-16.782c5.901-11.211,16.896-16.816,32.983-16.816c12.966,0.98,21.077,1.96,24.336,2.939
			l-2.358,15.483c-0.479-2.552-1.721-5.104-3.726-7.656c-3.987-5.127-9.821-7.69-17.5-7.69c-9.274,0-16.589,2.7-21.943,8.101
			c-5.423,5.469-8.135,12.988-8.135,22.559c0,9.16,3.714,16.931,11.143,23.311c6.858,5.879,14.446,8.818,22.764,8.818
			c4.603,0.205,8.191-0.877,10.767-3.247V74.834z"/>
	</g>
	<rect x="343.831" y="37.965" fill="none" width="143" height="79"/>
	<g enable-background="new    ">
		<path d="M412.881,26.98c-0.56-0.63-0.63-0.84-0.63-1.19c0-0.21,0.35-0.42,0.63-0.42c1.12,0,3.781,0.84,4.901,1.261
			c0.84,0.42,1.19,0.77,1.19,1.819c0,4.971-3.57,10.852-6.021,13.792c-0.28,0.42-0.56,0.56-0.91,0.56c-0.14,0-0.35-0.14-0.35-0.35
			s0.07-0.42,0.28-0.91c1.05-2.24,2.31-6.021,2.31-10.011C414.282,29.36,413.372,27.54,412.881,26.98z"/>
	</g>
</g>
<g id="Layer_2">
	<g id="shine">
		<path id="shield" fill="#FFDD00" d="M1.5,1.5v48.129c0,53.558,55.807,74.533,55.807,74.533s55.807-20.976,55.807-74.533V1.5H1.5z"
			/>
	</g>
	<g id="stag" transform="rotate(-15,300,300)translate(300,0)scale(-1.2,1.2)translate(-150,0)">
		<g id="antlers">
			<path stroke="#FFDD00" d="M285.125-34.306c1.423,0.813,2.79,1.719,3.745,3.037c0.412,0.59,0.599,1.193,0.787,1.901
				c0.243,0.841,0.187,2.13,0.075,2.994c-0.15,1.017-0.674,2.61-0.674,2.61l2.697-0.338c1.105-1.33,3.465-2.472,3.427-5.309
				c-0.768,1.689-2.229,2.553-3.689,2.995c0,0-0.038-1.667-0.206-2.456c0,0,0.786-1.266,1.105-1.91
				c0.262-0.569,0.356-1.191,0.393-1.824c0.019-0.76-0.318-1.562-0.356-2.32c-0.019-0.401,0.187-1.193,0.187-1.193
				s-0.73,0.676-0.88,1.278c-0.169,0.685,0.112,1.751,0,2.445c-0.094,0.54-0.187,1.013-0.6,1.361
				c-0.094,0.085-0.374,0.105-0.374,0.105c-0.131-0.411-0.524-0.875-0.637-1.339c0,0-0.299-1.075-0.412-1.687
				c-0.094-0.56-0.206-1.213-0.374-1.762c-0.299-1.055-0.955-1.844-1.273-2.91c-0.075-0.296-0.112-0.909-0.112-0.909
				s-0.487,0.972-0.487,1.531c0.019,0.853,0.712,1.53,0.88,2.372c0.112,0.507-0.019,1.541-0.019,1.541
				c-0.955-0.855-2.304-1.024-2.491-2.183c-0.075-0.496,0.281-0.749,0.3-1.309c0.038-0.642-0.038-1.264-0.169-1.897
				c-0.093-0.401-0.411-1.065-0.637-1.413c-0.393-0.569-0.805-1.371-0.805-1.371c-0.019-0.052-0.187,0.833,0.094,1.792
				c0.225,0.833,0.45,1.698,0.374,2.564c-0.037,0.358-0.149,0.717-0.337,1.023c-0.112,0.18-0.543,0.336-0.543,0.336
				c-1.482-0.346-2.442-1.379-3.538-2.108c-0.255-0.137-0.475-0.328-0.728-0.432c-0.273-0.105-0.706-0.285-0.706-0.285
				s0.189,0.496,0.41,0.822c0.97,1.446,2.288,2.468,3.978,3.386c0,0-1.15,0.569-1.951,0.453c-0.528-0.084-1.478-0.633-1.931-0.927
				c-0.38-0.244-1.054-0.56-1.054-0.56s0.369,0.717,0.695,1.118c0.465,0.56,1.425,1.097,2.131,1.245
				c0.697,0.148,1.246,0.117,1.951,0C283.945-33.916,285.125-34.306,285.125-34.306z"/>
			<path stroke="#FFDD00" d="M289.301-23.222c0,0,2.284-1.46,3.127-2.566c1.236-1.725,1.779-3.211,1.442-4.667
				c-0.393,1.56-1.666,3.418-2.846,3.881c-1.086,0.433-1.798,0.147-2.304-0.19c-0.656-0.443-1.011-1.117-0.899-1.876
				c0.094-0.58,0.319-0.949,0.244-1.531c-0.112-0.918-0.955-1.771-0.955-1.771s0.187,1.022,0.056,1.791
				c-0.112,0.676-0.487,1.286-0.599,1.963c-0.093,0.675,0.506,2.068,0.506,2.068s-1.292,0-1.779-0.159
				c-0.58-0.211-1.386-0.348-1.681-0.887c-0.337-0.59-0.347-0.961-0.294-1.635c0.073-0.801,0.347-2.457,0.212-3.249
				c-0.139-0.749-0.886-1.371-0.886-1.371s0.189,1.162,0.094,1.795c-0.116,0.789-0.465,1.423-0.643,2.213
				c-0.159,0.696-0.191,2.099-0.191,2.099s-0.811,0.021-1.15-0.169c-0.579-0.317-1.023-0.905-1.287-1.508
				c-0.569-1.318-0.032-3.313-0.822-4.515c-0.328-0.506-0.97-0.822-0.97-0.822s0.274,1.086,0.39,1.634
				c0.211,0.982-0.169,2.045-0.064,3.038c0.043,0.4,0.284,1.139,0.284,1.139s-2.468-0.96-3.174-1.984
				c-0.613-0.865-0.602-2.858-1.002-3.84c-0.401-0.958-1.371-1.624-1.371-1.624s0.422,1.223,0.485,2.161
				c0.063,0.929-0.019,2.384,0.284,3.261c0.201,0.6,0.517,1.034,1.118,1.55c0.59,0.517,1.646,1.276,1.646,1.276
				s-1.057,0.127-1.774-0.041c-0.717-0.158-1.856-0.718-2.425-1.066c-0.569-0.337-1.034-0.824-1.034-0.824s0.137,0.972,0.601,1.562
				c0.464,0.59,1.435,1.17,2.573,1.477c1.15,0.314,2.985-0.232,4.378-0.063c0.474,0.053,0.895,0.085,1.391,0.241
				c1.656,0.561,3.375,0.958,4.991,1.632c0.618,0.243,1.03,0.636,1.61,0.954c0.412,0.225,0.899,1.292,0.899,1.292L289.301-23.222z"
				/>
		</g>
		<g id="hooves">
			<g>
				<path stroke="#FFDD00" d="M320.275-9.346c0.674,0.88,1.105,1.967,2.734,2.978c-0.562,0.112-1.18,0.206-1.76-0.075
					c0.112,0.45,0.787,1.087,1.161,1.48c-1.255-0.001-1.967-0.207-2.716-0.748c-0.787-0.618-1.479-1.611-2.079-3.184L320.275-9.346z
					"/>
				<path fill="#FFDD00" d="M320.743-8.072c0.075,0.58,0.318,1.086,0.655,1.554c0.019,0.019,0.075,0.074,0.131,0.094
					c0.056,0.037,0.131,0.056,0.15,0.075l-0.393-0.019l0.018,0.207C320.949-6.705,320.668-7.38,320.743-8.072z"/>
			</g>
			<g>
				<path stroke="#FFDD00" d="M312.672,8.351c-0.749,0.824-1.76,1.461-2.453,3.257c-0.243-0.523-0.468-1.123-0.281-1.741
					c-0.43,0.206-0.955,0.974-1.273,1.404c-0.262-1.217-0.187-1.947,0.225-2.771c0.449-0.899,1.329-1.779,2.79-2.659L312.672,8.351z
					"/>
				<path fill="#FFDD00" d="M311.454,9.082c-0.562,0.167-1.03,0.525-1.442,0.937c-0.018,0.038-0.056,0.094-0.075,0.15
					c-0.018,0.076-0.037,0.15-0.056,0.168l-0.056-0.394l-0.206,0.075c0.524-0.488,1.142-0.881,1.835-0.938L311.454,9.082z"/>
			</g>
			<g>
				<path stroke="#FFDD00" d="M314.75,32.527c1.011,0.656,1.854,1.631,3.895,2.079c-0.525,0.356-1.123,0.675-1.816,0.6
					c0.299,0.412,1.217,0.843,1.742,1.105c-1.255,0.486-2.06,0.544-2.996,0.243c-1.049-0.319-2.117-1.106-3.315-2.529L314.75,32.527
					z"/>
				<path fill="#FFDD00" d="M315.724,33.707c0.281,0.563,0.731,1.012,1.255,1.349c0.019,0.037,0.094,0.056,0.169,0.074
					c0.056,0,0.131,0,0.169,0.02l-0.393,0.131l0.093,0.207C316.436,35.037,315.893,34.438,315.724,33.707L315.724,33.707z"/>
			</g>
			<g>
				<path stroke="#FFDD00" d="M290.743,45.58c0.712,0.992,1.124,2.21,2.884,3.389c-0.637,0.132-1.329,0.206-1.966-0.149
					c0.131,0.524,0.824,1.254,1.217,1.703c-1.404-0.037-2.172-0.299-2.977-0.936c-0.843-0.692-1.573-1.852-2.154-3.613
					L290.743,45.58z"/>
				<path fill="#FFDD00" d="M291.211,47.022c0.038,0.638,0.281,1.217,0.637,1.743c0.018,0.019,0.075,0.094,0.131,0.111
					c0.075,0.057,0.15,0.076,0.169,0.095l-0.431-0.039l0.001,0.244C291.341,48.539,291.079,47.771,291.211,47.022z"/>
			</g>
		</g>
		<path id="stag-upper-limb" stroke="#FFDD00" d="M313.777-8.448c-1.236,0.038-2.341,0.094-3.296,0.619
			c-0.544,0.28-0.787,0.58-0.956,1.161c-0.842,2.809-0.674,8.745-0.674,8.745l-5.356,2.229l-3.033-2.604
			c0,0,3.633-5.225,4.944-8.147c0.712-1.609,0.992-3.857,2.94-4.232c2.921-0.581,8.952-0.186,8.952-0.186s1.404,0.074,2.022,0.3
			c1.03,0.393,1.685,1.871,1.536,1.891c-0.955-0.262-1.873-0.132-2.678,0.993l-1.161-0.601c-0.168-0.094-0.525,0.018-0.655,0.206
			c-0.056,0.114-0.168,0.318-0.131,0.505c0.057,0.375,0.206,0.562-0.243,0.374c-0.15-0.056-0.318-0.15-0.449-0.224
			c-0.225-0.112-0.524-0.375-0.805-0.6C314.395-8.298,314.095-8.448,313.777-8.448z"/>
		<path id="stag-lower-limb" stroke="#FFDD00" d="M299.207,27.958c-0.468-0.431-0.712-1.255-0.468-1.854
			c0.149-0.394,1.067-0.673,1.067-0.673s0.169-1.648,0.375-2.434c0.262-0.918,1.067-2.623,1.067-2.623s-2.547-0.074-3.745-0.43
			c-1.947-0.543-4.944-2.19-4.944-2.19l0.899-6.723c0,0,4.083,0.318,6.049,0.712c2.547,0.487,7.229,2.865,7.229,2.865
			s0.524,0.094,0.711,0.243c0.543,0.412,0.581,0.843,0.805,1.592c0.244,0.787,0.412,1.425,0.131,2.135
			c-0.15,0.355-0.786,0.806-0.786,0.806s-0.431,1.142-0.619,1.591c-0.693,1.761-2.266,2.322-2.678,4.158
			c-0.15,0.675,0.094,1.422,0.43,2.021c0.356,0.619,0.956,1.087,1.592,1.442c1.872,1.048,4.307,1.667,6.348,2.36
			c0.805,0.263,1.555,0.374,2.173,0.767c0.169,0.113,0.506,0.412,0.599,0.619l0.412,0.862c-1.311-0.225-1.61-0.224-2.004,0.094
			c-0.525,0.449-0.45,1.254-0.506,1.965c0,0-0.824-0.334-1.161-0.617c-0.487-0.392-0.599-1.216-1.161-1.478
			c-0.468-0.207-0.918,0-1.011,0.579c-0.038,0.281,0,0.581,0.132,0.919c0.355,0.917-0.132,0.747-0.731,0.337
			c-0.562-0.375-1.087-0.713-1.405-1.162c-0.206-0.28-0.468-0.543-0.787-0.955c-0.319-0.375-0.712-0.878-1.18-1.254
			c-0.899-0.693-1.648-1.237-2.809-1.723c-0.805-0.355-1.798-0.693-2.528-1.048C300.143,28.595,299.6,28.352,299.207,27.958
			L299.207,27.958z"/>
		<path id="stag-groin" stroke="#FFDD00" d="M294.675,14.943c0,0,0.561,0.167,0.805,0.337c0.169,0.113,0.45,0.449,0.45,0.449
			l-1.836,3.277l-1.18-1.141L294.675,14.943z"/>
		<path id="stag-tongue" fill="#CC0000" stroke="#FFDD00" d="M301.304-15.901c-0.899,1.217-2.228,0.356-3.24-0.206
			c-0.88-0.469-3.202-0.524-3.202-0.524l0.562-0.993c0,0,1.873-0.281,2.903,0.487C299.282-16.425,300.012-15.582,301.304-15.901
			L301.304-15.901z"/>
		<path id="stag-body" stroke="#FFDD00" d="M298.645-15.208c-0.3,0.149-0.712,0.169-1.011,0.093
			c-1.105-0.225-2.154-1.479-3.708-1.61c-0.937-0.075-2.528,0.58-3.221,0.88c1.348,1.255,2.172,1.835,3.782,2.921
			c0.3,0.188,0.955,0.336,0.955,0.336c-0.093,0.113-0.318,0.245-0.618,0.281c-0.038,0.056,1.03,0.17,1.479,0.393
			c0.599,0.319,1.255,0.805,1.854,1.086c0.394,0.188,1.349,0.319,1.349,0.319c-0.206,0.206-0.524,0.392-0.693,0.431
			c0,0,1.873,0.356,2.753,1.03c0.449,0.337,0.768,1.03,1.198,1.404c0.337,0.301,1.236,0.58,1.236,0.58
			c-0.374,0.187-0.693,0.112-0.805,0.131c0.543,0.299,1.105,0.824,1.33,1.255c0.487,0.918,0.224,1.966,1.554,2.715
			c-0.318-0.001-0.58,0.113-0.993-0.094c0.075,0.319,0.132,0.637,0.188,0.955c0,0,3.202-1.404,4.776-1.703
			c0.768-0.15,1.573-0.113,2.36-0.207c0.674-0.093,1.723-0.411,1.723-0.411s0.712-0.187,1.068-0.094
			c1.011,0.281,1.667,1.629,1.667,1.629c0.281,0.3,0.243,0.861-0.057,1.517c-0.674,1.518-1.872,4.27-2.322,5.955
			c-0.244,0.88-0.225,2.135-0.618,2.978c-0.263,0.561-0.543,0.823-1.067,1.179c-0.243,0.17-0.861,0.263-0.861,0.263
			c0.262-1.348,0.075-2.079-0.992-2.659c0,0,0.243-0.543,0.206-0.749c-0.056-0.168-0.225-0.299-0.374-0.412
			c-0.206-0.131-0.731-0.113-0.599-0.299l0.15-0.206c0.337-0.487,1.123-0.693,1.554-0.993c0.337-0.207,0.543-0.637,0.712-0.898
			c0.543-0.918,0.674-2.097,1.236-3.408c0,0,0.169-0.338,0.131-0.506c-0.056-0.224-0.187-0.281-0.356-0.43
			c-0.131-0.132-0.262,0.057-0.58,0.225c-0.562,0.318-1.554,0.917-2.453,1.723c-1.33,1.142-2.472,2.546-4.007,3.52
			c-1.049,0.674-2.379,1.329-3.409,1.348c-0.449,0.018-0.918-0.843-0.918-0.843c-1.479,4.214-7.078,8.277-8.652,13.409
			c1.236,0.975,2.079,2.771,2.135,4.7c0.038,2.003-0.767,4.158-2.94,5.711c0,0-2.79,1.368-4.101,2.304
			c-0.618,0.449-1.198,0.973-1.629,1.592c-0.562,0.823-0.805,1.367-1.03,2.322c-0.581,2.454-0.243,5.806,1.329,7.847
			c0.749,0.954,2.528,1.835,3.39,2.716c0.431,0.43,0.581,1.422,0.581,1.422c-0.787-0.17-1.536-0.262-2.079-0.038
			c-0.431,0.186-0.712,0.598-0.749,1.404c0,0-0.842-0.224-1.105-0.525c-0.262-0.317-0.244-0.636-0.319-1.012
			c-0.262-0.673-0.674-0.898-0.973-0.991c-0.356-0.114-0.955-0.132-1.293,0.094c-0.468,0.318-0.637,1.14-0.955,1.085
			c-1.198-0.168-1.018-3.82-1.093-4.737c-0.073-1.012,0.127-2.154,0.043-3.109c-0.169-1.78-0.444-3.315-0.781-5.075
			c-0.18-0.956-1.212-2.491-0.485-3.129c0.718-0.617,1.635-0.785,2.354-1.31c0.805-1.48,1.723-2.977,3.258-4.439
			c-0.337-0.562-0.674-1.124-0.992-1.685c0,0.056,0.019,0.113,0.019,0.15c-0.075,2.135-2.042,2.866-3.12,2.696
			c0.243-0.132,0.464-0.3,0.591-0.638c-1.182,0.264-2.206,0.3-3.313-0.206c0.317-0.13,0.696-0.074,0.907-0.543
			c-0.834,0.057-1.435-0.15-1.836-0.506c-0.59-0.543-0.726-1.423-0.517-2.322c1.173,2.041,2.996,1.517,3.987,0.074
			c0.644-0.955,0.392-1.591,0.433-2.622c0.023-0.468,0.47-1.405,1.032-1.705c0-0.711,0.112-1.405,0.375-2.079
			c2.828-7.509,4.588-10.487,4.176-13.221c-0.112-1.929,0.318-3.821,0.88-4.439c-0.187-0.487-0.468-0.805-0.88-1.123
			c-0.188,0.599-0.581,0.899-0.936,1.03c0,0,0.262-0.749,0.056-1.367c-0.262-0.824-1.254-1.498-1.592-2.303
			c-0.225-0.562-0.168-1.798-0.168-1.798c-0.431,0.73-0.749,0.562-1.18,0.599c0,0,0.356-0.507,0.15-1.029
			c-0.225-0.581-1.161-1.612-1.386-2.192c-0.202-0.562-0.169-1.779-0.169-1.779c-0.39,0.243-0.579,0.618-1.212,0.486
			c0,0,0.36-0.655,0.296-1.405c0,0-0.212-1.779-0.232-2.696c-0.021-0.674-0.032-1.349,0.073-2.004
			c0.348-2.229,1.206-3.296,1.206-3.296l-0.405-0.113c-1.76-0.693-2.921-1.91-4.408-4.045c3.144-0.113,5.113,0.3,6.836,1.948
			c0.917-1.104,3.258-2.348,6.385-1.179c2.866,1.367,6.443,3.463,8.633,4.718c0.225,0.112,0.393,0.281,0.506,0.394
			c0.094,1.199-0.431,1.928-1.03,2.36c0,0-0.431,0.262-1.086,0.075c-0.431-0.112-1.555-0.3-2.004-0.337
			c-0.693-0.038-1.385,0.262-1.385,0.262C296.491-16.481,297.166-15.957,298.645-15.208L298.645-15.208z"/>
		<path fill="#FFDD00" d="M303.87-1.5l0.112,0.058l1.292-0.713l0.15,0.057l-1.423,0.787l-0.019,0.019l-0.037-0.02l-0.15-0.093
			l0-0.019h-0.019c-0.187-0.393-0.805-1.479-1.536-1.985C302.971-3.26,303.645-1.912,303.87-1.5L303.87-1.5z"/>
		<path fill="#FFDD00" d="M300.199,2.227c0.356,0.188,0.712,0.225,1.105,0.431c0.337,0.188,0.674,0.488,0.861,0.843
			c0.075,0.169,0.131,0.412,0.15,0.599c0.019,0.206,0.019,0.375,0.019,0.375l-0.113-0.001c0,0,0-0.149-0.037-0.356
			c-0.019-0.206-0.056-0.431-0.131-0.561c-0.169-0.337-0.487-0.619-0.824-0.787c-0.356-0.188-0.711-0.226-1.086-0.43
			c-0.131-0.075-0.3-0.225-0.431-0.356c-0.131-0.131-0.243-0.243-0.243-0.243C299.676,1.741,299.994,2.134,300.199,2.227
			L300.199,2.227z"/>
		<g id="stag-ear">
			<path fill="#FFDD00" d="M282.103-24.459c1.527,0.094,3.003,1.012,4.107,2.528l0.037,0.057l-0.037,0.038
				c-0.281,0.224-0.656,0.318-0.993,0.318c-0.318,0.019-0.655-0.075-0.992-0.187c-0.676-0.261-1.33-0.673-1.794-0.936
				c0.496,0.169,1.532,0.692,1.832,0.805c0.318,0.131,0.655,0.206,0.955,0.206c0.281,0.001,0.562-0.092,0.787-0.261
				c-0.393-0.563-1.405-1.555-2.375-2.004c-1.114-0.543-2.191-0.525-2.2-0.544C281.662-24.459,281.883-24.459,282.103-24.459
				L282.103-24.459z"/>
			<path fill="#FFDD00" d="M283.445-21.425c0.706,0.206,1.586,0.468,2.598,0.58c0.094,0.036,0.037,0.111-0.075,0.15
				c-1.03-0.112-1.817-0.337-2.566-0.618L283.445-21.425z M285.611-23.729c0.524,0.449,1.049,0.993,1.611,1.667
				c0.018,0.149-0.056,0.187-0.15,0.13c-0.524-0.674-1.03-1.254-1.535-1.704L285.611-23.729z"/>
		</g>
		<g id="stag-eye">
			<path fill="#FFFFFF" stroke="#FFDD00" d="M292.596-22.511c-0.094,0.038-0.206,0.057-0.262,0.133
				c-0.075,0.075-0.112,0.167-0.113,0.28c0.019,0.206,0.15,0.374,0.375,0.562c0.225,0.206,0.524,0.337,0.861,0.337
				c0.337-0.019,0.637-0.187,0.843-0.393c0.206-0.206,0.337-0.469,0.337-0.673c0-0.113-0.056-0.207-0.131-0.262
				c-0.075-0.057-0.169-0.094-0.281-0.113c-0.224-0.038-0.524,0.056-0.843,0.075C293.065-22.567,292.821-22.568,292.596-22.511
				L292.596-22.511z"/>
			<g>
				<path fill="#333333" d="M294.263-22.062c0.056,0.319-0.168,0.618-0.487,0.674c-0.318,0.038-0.618-0.187-0.674-0.506
					c-0.056-0.335,0.169-0.637,0.487-0.674C293.926-22.623,294.226-22.399,294.263-22.062z"/>
				<path d="M293.645-22.268c-0.169,0.018-0.299,0.15-0.262,0.318c0.019,0.168,0.187,0.262,0.337,0.243
					c0.169-0.018,0.281-0.15,0.262-0.318C293.964-22.211,293.795-22.305,293.645-22.268z"/>
				<path fill="#FFFFFF" d="M293.514-22.381c0.094,0.038,0.15,0.15,0.113,0.264c-0.037,0.112-0.15,0.15-0.243,0.111
					c-0.094-0.038-0.15-0.15-0.112-0.262C293.308-22.38,293.42-22.418,293.514-22.381z"/>
			</g>
		</g>
		<g id="stag-nose">
			<path fill="#333333" d="M301.304-18.448c-0.824,0.169-2.06-0.824-1.011-1.742c0,0,0.487,0.169,0.693,0.319
				c0.15,0.093,0.337,0.205,0.393,0.374C301.51-19.178,301.304-18.448,301.304-18.448L301.304-18.448z"/>
			<path d="M301.061-18.672c0,0-0.131-0.469-0.3-0.58c-0.112-0.057-0.262-0.188-0.375-0.113c-0.075,0.055-0.075,0.225-0.019,0.281
				C300.537-18.841,301.061-18.672,301.061-18.672L301.061-18.672z"/>
		</g>
		<g id="crown">
			<path fill="#FFDD00" stroke="#555500" d="M289.75-2.117l-4.626-2.51c0.262-0.449,0.637-0.88,1.105-1.31
				c0.281,0.73,0.524,1.443,0.974,1.835c0.169-0.654-0.056-1.18-0.281-1.723l1.892,1.293c-0.337,0.187-0.225,0-1.105,0.486
				c0.281,0.113,0.711,0.188,1.086,0.094h0.019c0.112-0.038,0.243-0.075,0.337-0.15c0.281-0.187,0.412-0.431,0.45-0.694
				c0.037-0.205,0.037-0.43-0.113-0.581c-0.075-0.094-0.15-0.17-0.206-0.281c-0.056-0.037-0.187-0.056-0.243-0.019
				c-0.056,0.038,0,0.15,0.019,0.206c0.075,0.131,0.225,0.188,0.281,0.318c0.056,0.13,0.075,0.282,0.037,0.432
				c-0.056,0.13-0.244,0.299-0.244,0.299l-0.149-0.299c-0.094-0.206-0.393-0.206-0.562-0.357c-0.131-0.094-0.244-0.206-0.3-0.337
				c-0.056-0.169-0.056-0.356,0.019-0.505c0.019-0.038,0.075-0.094,0.112-0.131c0.075-0.056,0.243-0.112,0.243-0.112
				s-0.187-0.15-0.262-0.263c-0.094-0.149-0.187-0.487-0.225-0.657c-0.056-0.26-0.037-0.58-0.037-0.618
				c0.038,0,0.356,0.019,0.618,0.112c0.169,0.057,0.375,0.15,0.506,0.261c0.112,0.095,0.281,0.318,0.281,0.318
				s0.131-0.225,0.187-0.281c0.038-0.056,0.094-0.093,0.15-0.112c0.15-0.056,0.337-0.038,0.487,0.037
				c0.131,0.075,0.243,0.206,0.319,0.337c0.131,0.187,0.131,0.431,0.337,0.543l0.281,0.188c0,0-0.187,0.17-0.318,0.187
				c-0.15,0.038-0.281,0-0.43-0.074c-0.113-0.075-0.187-0.206-0.338-0.245c-0.056,0.001-0.131-0.018-0.168,0.02
				c-0.056,0.055-0.019,0.188,0.019,0.243l0.187,0.244c0.056,0.075,0.169,0.132,0.244,0.15c0.225,0.056,0.43,0.019,0.656-0.037
				c0.225-0.075,0.412-0.187,0.599-0.337c0.15-0.131,0.412-0.375,0.505-0.562c0.131-0.206,0.169-0.376,0.206-0.637
				c0.019-0.131-0.018-0.281-0.075-0.412c-0.056-0.149-0.243-0.355-0.243-0.355c-0.112,0.225-0.187,0.449-0.244,0.674
				c-0.075,0.262-0.094,0.524-0.093,0.767l-1.723-2.003c0.375,0.055,0.656,0.132,0.993,0.112c0.262,0,0.393-0.019,0.599-0.112
				c-0.187-0.113-0.281-0.206-0.543-0.262c-0.337-0.093-0.712-0.206-1.105-0.263c0.318-0.356,0.675-0.691,1.03-0.991
				c0.374-0.318,0.749-0.599,1.161-0.843c0,0.393,0.038,0.768,0.075,1.124c0.019,0.281,0.075,0.374,0.168,0.58
				c0.113-0.187,0.169-0.3,0.206-0.581c0.056-0.299,0.037-0.598,0.056-0.973l1.685,2.041c-0.243-0.037-0.506-0.056-0.768-0.037
				c-0.243,0-0.468,0.038-0.712,0.131c0,0,0.15,0.206,0.3,0.3c0.112,0.075,0.262,0.13,0.393,0.15c0.262,0.001,0.431,0,0.655-0.112
				c0.188-0.056,0.487-0.262,0.637-0.393c0.187-0.169,0.319-0.319,0.431-0.543c0.113-0.187,0.168-0.393,0.15-0.618
				c-0.019-0.094-0.037-0.186-0.112-0.261l-0.206-0.225c-0.056-0.056-0.169-0.131-0.225-0.075c-0.056,0.038-0.056,0.113-0.056,0.168
				c0.019,0.149,0.15,0.244,0.187,0.393c0.056,0.132,0.056,0.281,0,0.431c-0.056,0.112-0.262,0.281-0.262,0.281l-0.112-0.3
				c-0.094-0.224-0.319-0.28-0.487-0.431c-0.131-0.093-0.244-0.224-0.262-0.375c-0.056-0.15-0.056-0.337,0.037-0.487
				c0.038-0.037,0.075-0.093,0.131-0.113c0.075-0.056,0.318-0.131,0.318-0.131s-0.206-0.225-0.262-0.337
				c-0.094-0.149-0.15-0.374-0.169-0.544c-0.037-0.281,0-0.58,0-0.618c0.037,0,0.356,0.038,0.618,0.131
				c0.15,0.075,0.469,0.206,0.581,0.337c0.094,0.094,0.206,0.318,0.206,0.318s0.094-0.15,0.169-0.225
				c0.038-0.036,0.094-0.075,0.15-0.093c0.169-0.038,0.356,0.001,0.487,0.074c0.15,0.075,0.225,0.207,0.3,0.356
				c0.112,0.207,0.056,0.487,0.244,0.619l0.281,0.188c0,0-0.225,0.168-0.337,0.168c-0.15,0.019-0.3-0.018-0.431-0.112
				c-0.112-0.075-0.15-0.224-0.281-0.3c-0.037-0.056-0.131-0.131-0.187-0.075c-0.056,0.056-0.075,0.187-0.019,0.244
				c0.075,0.094,0.15,0.186,0.225,0.262c0.131,0.169,0.356,0.206,0.543,0.206c0.281,0.001,0.543-0.075,0.787-0.319
				c0.356-0.355,0.412-0.992,0.319-1.404c-0.655,0.768-0.431,0.712-0.693,0.993l-0.918-2.079c0.487,0.3,0.955,0.6,1.648,0.579
				c-0.319-0.505-0.974-0.897-1.648-1.291c0.506-0.375,1.011-0.675,1.498-0.861l1.667,4.999
				C295.274-7.998,292.466-5.283,289.75-2.117L289.75-2.117z"/>
			<path fill="#FFDD00" stroke="#555500" d="M296.024-10.582l-0.019-0.262l-0.243-0.075l-0.749,0.561l0.038,0.225l0.225,0.094
				L296.024-10.582z"/>
			<path fill="#FFDD00" stroke="#555500" d="M289.394-5.226l-0.037-0.244l0.674-0.637l0.243,0.075l0.038,0.225l-0.674,0.636
				L289.394-5.226z"/>
		</g>
	</g>
	<g id="shine_1_">
		
			<radialGradient id="shield_2_" cx="-125.6748" cy="499.3948" r="75.8441" gradientTransform="matrix(1 0 0 1 168 -457.0693)" gradientUnits="userSpaceOnUse">
			<stop  offset="0" style="stop-color:#FFFFFF;stop-opacity:0.3"/>
			<stop  offset="0.2" style="stop-color:#FFFFFF;stop-opacity:0.2"/>
			<stop  offset="0.6" style="stop-color:#666666;stop-opacity:0.1"/>
			<stop  offset="1" style="stop-color:#000000;stop-opacity:0.13"/>
		</radialGradient>
		<path id="shield_1_" fill="url(#shield_2_)" stroke="#000000" stroke-width="3" d="M1.5,1.5v48.129
			c0,53.558,55.807,74.533,55.807,74.533s55.807-20.976,55.807-74.533V1.5H1.5z"/>
	</g>
</g>
</svg>
